<?xml version="1.0" encoding="utf-8"?>
<!-- Generator: Adobe Illustrator 18.1.1, SVG Export Plug-In . SVG Version: 6.00 Build 0)  -->
<!DOCTYPE svg PUBLIC "-//W3C//DTD SVG 1.1//EN" "http://www.w3.org/Graphics/SVG/1.1/DTD/svg11.dtd">
<svg version="1.1" id="Layer_1" xmlns="http://www.w3.org/2000/svg" xmlns:xlink="http://www.w3.org/1999/xlink" x="0px" y="0px"
	 viewBox="76.3 140.2 197.4 69.5" style="enable-background:new 76.3 140.2 197.4 69.5;" xml:space="preserve">
<g>
	<g>
		<path style="fill:#FFFFFF;" d="M97.7,208.7v-53.5H76.3v-13.9h53c5.6,0,5.6,4.7,5.6,13.9h-21.5v53.5H97.7z"/>
	</g>
	<g>
		<path style="fill:#FFFFFF;" d="M183.2,181.9l7.9,11.2c3,4.4,5.7,6.4,10.3,6.4h1.4v2.2c0,5.3-5.2,8.1-11.4,8.1
			c-6.1,0-10.1-1.4-15-9.8l-6.9-11.4h-10.2v20.2h-15.6v-59.5c0-8,2-8,15.6-8h10.5c16.3,0,26.6,6.8,26.6,20.4
			C196.3,171.6,191.2,178.2,183.2,181.9z M166.5,154.2h-7.2v21.8h7.5c7.7,0,13.5-4.4,13.5-11.7C180.3,156.3,174,154.2,166.5,154.2z"
			/>
	</g>
	<g>
		<path style="fill:#FFFFFF;" d="M239.9,209.8c-20.3,0-33.8-16-33.8-36.8c0-20.6,12.8-32.8,33.8-32.8c20.9,0,33.8,12.1,33.8,32.8
			C273.7,193.7,260.2,209.8,239.9,209.8z M239.9,153.2c-11.2,0-17.6,7.2-17.6,19.8c0,13.5,6.9,23.5,17.6,23.5s17.6-9.7,17.6-23.5
			C257.5,160.2,251.1,153.2,239.9,153.2z"/>
	</g>
</g>
</svg>
